<?xml version="1.0" encoding="UTF-8" standalone="no"?>
<!--
  ~  Copyright (C) 2018 Team Gateship-One
  ~  (Hendrik Borghorst & Frederik Luetkes)
  ~
  ~  The AUTHORS.md file contains a detailed contributors list:
  ~  <https://github.com/gateship-one/malp/blob/master/AUTHORS.md>
  ~
  ~  This program is free software: you can redistribute it and/or modify
  ~  it under the terms of the GNU General Public License as published by
  ~  the Free Software Foundation, either version 3 of the License, or
  ~  (at your option) any later version.
  ~
  ~  This program is distributed in the hope that it will be useful,
  ~  but WITHOUT ANY WARRANTY; without even the implied warranty of
  ~  MERCHANTABILITY or FITNESS FOR A PARTICULAR PURPOSE.  See the
  ~  GNU General Public License for more details.
  ~
  ~  You should have received a copy of the GNU General Public License
  ~  along with this program.  If not, see <http://www.gnu.org/licenses/>.
  ~
  -->

<!-- Created with Inkscape (http://www.inkscape.org/) -->

<svg
   xmlns:dc="http://purl.org/dc/elements/1.1/"
   xmlns:cc="http://creativecommons.org/ns#"
   xmlns:rdf="http://www.w3.org/1999/02/22-rdf-syntax-ns#"
   xmlns:svg="http://www.w3.org/2000/svg"
   xmlns="http://www.w3.org/2000/svg"
   xmlns:sodipodi="http://sodipodi.sourceforge.net/DTD/sodipodi-0.dtd"
   xmlns:inkscape="http://www.inkscape.org/namespaces/inkscape"
   width="720"
   height="1280"
   id="svg5925"
   version="1.1"
   inkscape:version="0.91 r13725"
   sodipodi:docname="malp_splash_port.svg">
  <defs
     id="defs5927" />
  <sodipodi:namedview
     id="base"
     pagecolor="#000000"
     bordercolor="#666666"
     borderopacity="1.0"
     inkscape:pageopacity="0"
     inkscape:pageshadow="2"
     inkscape:zoom="0.7"
     inkscape:cx="119.68634"
     inkscape:cy="650.76035"
     inkscape:document-units="px"
     inkscape:current-layer="g4142"
     showgrid="false"
     fit-margin-top="0"
     fit-margin-left="0"
     fit-margin-right="0"
     fit-margin-bottom="0"
     inkscape:window-width="1920"
     inkscape:window-height="1015"
     inkscape:window-x="0"
     inkscape:window-y="0"
     inkscape:window-maximized="1" />
  <metadata
     id="metadata5930">
    <rdf:RDF>
      <cc:Work
         rdf:about="">
        <dc:format>image/svg+xml</dc:format>
        <dc:type
           rdf:resource="http://purl.org/dc/dcmitype/StillImage" />
        <dc:title />
      </cc:Work>
    </rdf:RDF>
  </metadata>
  <g
     inkscape:label="Ebene 1"
     inkscape:groupmode="layer"
     id="layer1"
     transform="translate(41.272082,388.59901)">
    <g
       id="g4142"
       transform="translate(0,-367.60953)">
      <g
         style="font-style:normal;font-weight:normal;font-size:40px;line-height:125%;font-family:sans-serif;letter-spacing:0px;word-spacing:0px;fill:#feffff;fill-opacity:0.78431373;stroke:none;stroke-width:1px;stroke-linecap:butt;stroke-linejoin:miter;stroke-opacity:1"
         id="text3360">
        <path
           d="m 226.69179,808.28455 15.76172,37.76367 15.82031,-37.76367 4.62891,0 0,42.65625 -3.48633,0 0,-18.83789 0.29297,-18.89649 -0.0879,-0.0293 -15.9375,37.76368 -2.43165,0 -15.9082,-37.61719 -0.0879,0.0293 0.32227,18.75 0,18.83789 -3.48633,0 0,-42.65625 4.59961,0 z"
           style="font-style:normal;font-variant:normal;font-weight:300;font-stretch:normal;font-size:60px;line-height:125%;font-family:Roboto;-inkscape-font-specification:'Roboto, Light';text-align:start;writing-mode:lr-tb;text-anchor:start;fill:#feffff;fill-opacity:0.78431373;stroke:none;stroke-opacity:1"
           id="path3390" />
        <path
           d="m 277.43398,850.9408 -4.01368,0 0,-4.62891 4.01368,0 0,4.62891 z"
           style="font-style:normal;font-variant:normal;font-weight:300;font-stretch:normal;font-size:60px;line-height:125%;font-family:Roboto;-inkscape-font-specification:'Roboto, Light';text-align:start;writing-mode:lr-tb;text-anchor:start;fill:#feffff;fill-opacity:0.78431373;stroke:none;stroke-opacity:1"
           id="path3392" />
        <path
           d="m 311.41835,838.89978 -19.45312,0 -4.45313,12.04102 -3.63281,0 16.20117,-42.65625 3.31055,0 16.08398,42.65625 -3.63281,0 -4.42383,-12.04102 z m -18.33984,-2.98828 17.22656,0 -8.55469,-23.32031 -8.67187,23.32031 z"
           style="font-style:normal;font-variant:normal;font-weight:300;font-stretch:normal;font-size:60px;line-height:125%;font-family:Roboto;-inkscape-font-specification:'Roboto, Light';text-align:start;writing-mode:lr-tb;text-anchor:start;fill:#feffff;fill-opacity:0.78431373;stroke:none;stroke-opacity:1"
           id="path3394" />
        <path
           d="m 329.46523,850.9408 -4.01368,0 0,-4.62891 4.01368,0 0,4.62891 z"
           style="font-style:normal;font-variant:normal;font-weight:300;font-stretch:normal;font-size:60px;line-height:125%;font-family:Roboto;-inkscape-font-specification:'Roboto, Light';text-align:start;writing-mode:lr-tb;text-anchor:start;fill:#feffff;fill-opacity:0.78431373;stroke:none;stroke-opacity:1"
           id="path3396" />
        <path
           d="m 343.96718,847.98181 21.09375,0 0,2.95899 -24.60938,0 0,-42.65625 3.51563,0 0,39.69726 z"
           style="font-style:normal;font-variant:normal;font-weight:300;font-stretch:normal;font-size:60px;line-height:125%;font-family:Roboto;-inkscape-font-specification:'Roboto, Light';text-align:start;writing-mode:lr-tb;text-anchor:start;fill:#feffff;fill-opacity:0.78431373;stroke:none;stroke-opacity:1"
           id="path3398" />
        <path
           d="m 375.6371,850.9408 -4.01367,0 0,-4.62891 4.01367,0 0,4.62891 z"
           style="font-style:normal;font-variant:normal;font-weight:300;font-stretch:normal;font-size:60px;line-height:125%;font-family:Roboto;-inkscape-font-specification:'Roboto, Light';text-align:start;writing-mode:lr-tb;text-anchor:start;fill:#feffff;fill-opacity:0.78431373;stroke:none;stroke-opacity:1"
           id="path3400" />
        <path
           d="m 390.10976,833.21619 0,17.72461 -3.48633,0 0,-42.65625 14.67773,0 q 6.85547,0 10.45899,3.36914 3.60351,3.36914 3.60351,9.08203 0,5.80078 -3.60351,9.14062 -3.60352,3.33985 -10.45899,3.33985 l -11.1914,0 z m 0,-2.98828 11.1914,0 q 5.39063,0 7.96875,-2.63672 2.60742,-2.63672 2.60742,-6.79688 0,-4.18945 -2.60742,-6.85547 -2.57812,-2.66601 -7.96875,-2.66601 l -11.1914,0 0,18.95508 z"
           style="font-style:normal;font-variant:normal;font-weight:300;font-stretch:normal;font-size:60px;line-height:125%;font-family:Roboto;-inkscape-font-specification:'Roboto, Light';text-align:start;writing-mode:lr-tb;text-anchor:start;fill:#feffff;fill-opacity:0.78431373;stroke:none;stroke-opacity:1"
           id="path3402" />
      </g>
      <g
         transform="matrix(6.7172602,0,0,6.7172602,32.366198,252.40063)"
         style="display:inline"
         inkscape:label="Ebene"
         id="layer2">
        <g
           id="g4558">
          <path
             inkscape:connector-curvature="0"
             style="fill:#feffff;fill-opacity:0.50196078"
             id="path3158-7"
             d="M 52.81543,34.029447 45.385083,35.993253 33.80586,39.05359 c -0.838149,0.22214 -1.523476,1.1107 -1.523476,1.978779 l 0,22.778008 c -1.772399,-0.475789 -4.04422,-0.247348 -6.221514,0.803485 -14.102056,8.768958 9.000902,14.465262 9.37087,2.831102 l 0,-19.639691 15.754658,-4.167093 0,17.022852 c -1.772398,-0.474215 -4.042645,-0.248924 -6.221513,0.803484 -3.705497,1.791299 -5.687433,5.239981 -4.425484,7.702427 1.258797,2.462443 5.284112,3.009129 8.991183,1.214679 2.953998,-1.427367 4.813049,-3.902415 4.806746,-6.095456 l 0,-29.084577 c 0.0016,-0.866503 -0.685328,-1.394282 -1.5219,-1.172142 z" />
          <g
             id="PLACE_YOUR_GRAPHIC_HERE"
             transform="matrix(0.88945724,0,0,0.88945422,24.142639,39.933439)">
            <path
               d="m 31.324503,-7.5153618 -8.3538,2.2078791 -13.0183021,3.4406899 C 9.0100871,-1.6170442 8.2395861,-0.61804991 8.2395861,0.35791796 l 0,25.60897204 C 6.2469113,25.431967 3.6927449,25.688801 1.2448546,26.870236 -14.609821,36.729043 11.3644,43.133312 11.780348,30.053201 l 0,-22.0806082 17.712665,-4.685 0,19.1385352 c -1.992675,-0.533151 -4.54507,-0.27986 -6.994731,0.903346 -4.166019,2.01393 -6.394272,5.891232 -4.975488,8.659722 1.415242,2.768489 5.940828,3.383119 10.108618,1.365646 3.321125,-1.604767 5.411219,-4.387427 5.404134,-6.85303 l 0,-32.6993515 c 0.0018,-0.9741966 -0.770501,-1.5675709 -1.711043,-1.3178223 z"
               id="path3158"
               style="fill:none;fill-opacity:1"
               inkscape:connector-curvature="0" />
          </g>
          <path
             d="m 50.757612,24.306661 c 3.38952,0.558425 5.597152,1.96256 7.022522,3.599338 2.904886,3.335724 2.560763,7.637698 2.35032,7.716615 l 0.171455,-0.914421"
             id="path3187"
             style="fill:none;stroke:#feffff;stroke-width:1.66619432;stroke-linecap:butt;stroke-linejoin:miter;stroke-miterlimit:4;stroke-dasharray:none;stroke-opacity:0.50196078;marker-start:none"
             inkscape:connector-curvature="0" />
          <path
             d="m 52.008206,20.985112 c 3.856747,0.635402 5.342694,1.786561 7.23384,3.14962 2.043073,1.472562 4.427145,5.852904 4.376867,10.861217"
             id="path3187-1"
             style="fill:none;stroke:#feffff;stroke-width:1.89586973;stroke-linecap:butt;stroke-linejoin:miter;stroke-miterlimit:4;stroke-dasharray:none;stroke-opacity:0.50196078;marker-start:none"
             inkscape:connector-curvature="0" />
          <path
             d="m 49.505616,27.633634 c 2.892679,0.47657 4.776709,1.674885 5.993151,3.071741 2.479079,2.846768 2.185399,6.51815 2.005803,6.585499 l 0.146323,-0.780384"
             id="path3187-7"
             style="fill:none;stroke:#feffff;stroke-width:1.42196059;stroke-linecap:butt;stroke-linejoin:miter;stroke-miterlimit:4;stroke-dasharray:none;stroke-opacity:0.50196078;marker-start:none"
             inkscape:connector-curvature="0" />
        </g>
      </g>
    </g>
  </g>
</svg>
