<?xml version="1.0" encoding="UTF-8" standalone="no"?>
<!--
  ~  Copyright (C) 2017 Team Gateship-One
  ~  (Hendrik Borghorst & Frederik Luetkes)
  ~
  ~  The AUTHORS.md file contains a detailed contributors list:
  ~  <https://github.com/gateship-one/malp/blob/master/AUTHORS.md>
  ~
  ~  This program is free software: you can redistribute it and/or modify
  ~  it under the terms of the GNU General Public License as published by
  ~  the Free Software Foundation, either version 3 of the License, or
  ~  (at your option) any later version.
  ~
  ~  This program is distributed in the hope that it will be useful,
  ~  but WITHOUT ANY WARRANTY; without even the implied warranty of
  ~  MERCHANTABILITY or FITNESS FOR A PARTICULAR PURPOSE.  See the
  ~  GNU General Public License for more details.
  ~
  ~  You should have received a copy of the GNU General Public License
  ~  along with this program.  If not, see <http://www.gnu.org/licenses/>.
  ~
  -->

<svg
   xmlns:dc="http://purl.org/dc/elements/1.1/"
   xmlns:cc="http://creativecommons.org/ns#"
   xmlns:rdf="http://www.w3.org/1999/02/22-rdf-syntax-ns#"
   xmlns:svg="http://www.w3.org/2000/svg"
   xmlns="http://www.w3.org/2000/svg"
   xmlns:xlink="http://www.w3.org/1999/xlink"
   xmlns:sodipodi="http://sodipodi.sourceforge.net/DTD/sodipodi-0.dtd"
   xmlns:inkscape="http://www.inkscape.org/namespaces/inkscape"
   version="1.1"
   id="svg5925"
   height="720"
   width="1280"
   inkscape:version="0.91 r13725"
   sodipodi:docname="malp_splash_landscape.svg">
  <sodipodi:namedview
     pagecolor="#000000"
     bordercolor="#666666"
     borderopacity="1"
     objecttolerance="10"
     gridtolerance="10"
     guidetolerance="10"
     inkscape:pageopacity="0"
     inkscape:pageshadow="2"
     inkscape:window-width="1920"
     inkscape:window-height="1015"
     id="namedview15"
     showgrid="false"
     inkscape:zoom="0.8396893"
     inkscape:cx="668.70015"
     inkscape:cy="390.76048"
     inkscape:window-x="0"
     inkscape:window-y="0"
     inkscape:window-maximized="1"
     inkscape:current-layer="svg5925" />
  <defs
     id="defs5927">
    <linearGradient
       id="linearGradient3789-6">
      <stop
         id="stop3791-0"
         offset="0"
         style="stop-color:#e50c98;stop-opacity:1;" />
      <stop
         id="stop3793-4"
         offset="1"
         style="stop-color:#960862;stop-opacity:1;" />
    </linearGradient>
    <linearGradient
       y2="80"
       x2="45"
       y1="10"
       x1="45"
       spreadMethod="reflect"
       gradientUnits="userSpaceOnUse"
       id="linearGradient3922"
       xlink:href="#linearGradient3789-6"
       inkscape:collect="always" />
    <linearGradient
       id="linearGradient3789-6-7">
      <stop
         id="stop3791-0-4"
         offset="0"
         style="stop-color:#0a75c2;stop-opacity:1;" />
      <stop
         id="stop3793-4-0"
         offset="1"
         style="stop-color:#064572;stop-opacity:1;" />
    </linearGradient>
    <linearGradient
       gradientTransform="matrix(-1,0,0,-1,90,90)"
       inkscape:collect="always"
       xlink:href="#linearGradient3789-6-7"
       id="linearGradient3016"
       gradientUnits="userSpaceOnUse"
       spreadMethod="reflect"
       x1="45"
       y1="10"
       x2="45"
       y2="80" />
    <linearGradient
       id="linearGradient5048">
      <stop
         offset="0"
         style="stop-color:#c3c3c3;stop-opacity:1"
         id="stop5050" />
      <stop
         offset="1"
         style="stop-color:#ffffff;stop-opacity:1"
         id="stop5052" />
    </linearGradient>
    <linearGradient
       id="linearGradient5239">
      <stop
         offset="0"
         style="stop-color:#ffffff;stop-opacity:1"
         id="stop5241" />
      <stop
         offset="1"
         style="stop-color:#c0c0c0;stop-opacity:1"
         id="stop5243" />
    </linearGradient>
    <linearGradient
       y2="21.701733"
       x2="70.611412"
       y1="37.6446"
       x1="56.516762"
       gradientTransform="matrix(0.9848564,0,0,0.9848564,-0.92040974,1.4578175)"
       gradientUnits="userSpaceOnUse"
       id="linearGradient4007"
       xlink:href="#linearGradient5239"
       inkscape:collect="always" />
  </defs>
  <metadata
     id="metadata5930">
    <rdf:RDF>
      <cc:Work
         rdf:about="">
        <dc:format>image/svg+xml</dc:format>
        <dc:type
           rdf:resource="http://purl.org/dc/dcmitype/StillImage" />
        <dc:title />
      </cc:Work>
    </rdf:RDF>
  </metadata>
  <g
     style="font-style:normal;font-weight:normal;font-size:40px;line-height:125%;font-family:sans-serif;letter-spacing:0px;word-spacing:0px;fill:#feffff;fill-opacity:0.78431373;stroke:none;stroke-width:1px;stroke-linecap:butt;stroke-linejoin:miter;stroke-opacity:1"
     id="text3360">
    <path
       d="m 547.96387,549.27399 15.76172,37.76367 15.82031,-37.76367 4.6289,0 0,42.65625 -3.48632,0 0,-18.83789 0.29297,-18.89649 -0.0879,-0.0293 -15.9375,37.76368 -2.43164,0 -15.9082,-37.61719 -0.0879,0.0293 0.32227,18.75 0,18.83789 -3.48633,0 0,-42.65625 4.59961,0 z"
       style="font-style:normal;font-variant:normal;font-weight:300;font-stretch:normal;font-size:60px;line-height:125%;font-family:Roboto;-inkscape-font-specification:'Roboto, Light';text-align:start;writing-mode:lr-tb;text-anchor:start;fill:#feffff;fill-opacity:0.78431373;stroke:none;stroke-opacity:1"
       id="path4449" />
    <path
       d="m 598.70605,591.93024 -4.01367,0 0,-4.62891 4.01367,0 0,4.62891 z"
       style="font-style:normal;font-variant:normal;font-weight:300;font-stretch:normal;font-size:60px;line-height:125%;font-family:Roboto;-inkscape-font-specification:'Roboto, Light';text-align:start;writing-mode:lr-tb;text-anchor:start;fill:#feffff;fill-opacity:0.78431373;stroke:none;stroke-opacity:1"
       id="path4451" />
    <path
       d="m 632.69043,579.88922 -19.45313,0 -4.45312,12.04102 -3.63281,0 16.20117,-42.65625 3.31055,0 16.08398,42.65625 -3.63281,0 -4.42383,-12.04102 z m -18.33984,-2.98828 17.22656,0 -8.55469,-23.32031 -8.67187,23.32031 z"
       style="font-style:normal;font-variant:normal;font-weight:300;font-stretch:normal;font-size:60px;line-height:125%;font-family:Roboto;-inkscape-font-specification:'Roboto, Light';text-align:start;writing-mode:lr-tb;text-anchor:start;fill:#feffff;fill-opacity:0.78431373;stroke:none;stroke-opacity:1"
       id="path4453" />
    <path
       d="m 650.7373,591.93024 -4.01367,0 0,-4.62891 4.01367,0 0,4.62891 z"
       style="font-style:normal;font-variant:normal;font-weight:300;font-stretch:normal;font-size:60px;line-height:125%;font-family:Roboto;-inkscape-font-specification:'Roboto, Light';text-align:start;writing-mode:lr-tb;text-anchor:start;fill:#feffff;fill-opacity:0.78431373;stroke:none;stroke-opacity:1"
       id="path4455" />
    <path
       d="m 665.23926,588.97125 21.09375,0 0,2.95899 -24.60938,0 0,-42.65625 3.51563,0 0,39.69726 z"
       style="font-style:normal;font-variant:normal;font-weight:300;font-stretch:normal;font-size:60px;line-height:125%;font-family:Roboto;-inkscape-font-specification:'Roboto, Light';text-align:start;writing-mode:lr-tb;text-anchor:start;fill:#feffff;fill-opacity:0.78431373;stroke:none;stroke-opacity:1"
       id="path4457" />
    <path
       d="m 696.90918,591.93024 -4.01367,0 0,-4.62891 4.01367,0 0,4.62891 z"
       style="font-style:normal;font-variant:normal;font-weight:300;font-stretch:normal;font-size:60px;line-height:125%;font-family:Roboto;-inkscape-font-specification:'Roboto, Light';text-align:start;writing-mode:lr-tb;text-anchor:start;fill:#feffff;fill-opacity:0.78431373;stroke:none;stroke-opacity:1"
       id="path4459" />
    <path
       d="m 711.38184,574.20563 0,17.72461 -3.48633,0 0,-42.65625 14.67773,0 q 6.85547,0 10.45899,3.36914 3.60351,3.36914 3.60351,9.08203 0,5.80078 -3.60351,9.14062 -3.60352,3.33985 -10.45899,3.33985 l -11.1914,0 z m 0,-2.98828 11.1914,0 q 5.39063,0 7.96875,-2.63672 2.60742,-2.63672 2.60742,-6.79688 0,-4.18945 -2.60742,-6.85547 -2.57812,-2.66601 -7.96875,-2.66601 l -11.1914,0 0,18.95508 z"
       style="font-style:normal;font-variant:normal;font-weight:300;font-stretch:normal;font-size:60px;line-height:125%;font-family:Roboto;-inkscape-font-specification:'Roboto, Light';text-align:start;writing-mode:lr-tb;text-anchor:start;fill:#feffff;fill-opacity:0.78431373;stroke:none;stroke-opacity:1"
       id="path4461" />
  </g>
  <g
     transform="matrix(6.7172602,0,0,6.7172602,353.63828,-6.609885)"
     style="display:inline"
     inkscape:label="Ebene"
     id="layer2">
    <g
       id="g4558">
      <path
         inkscape:connector-curvature="0"
         style="fill:#feffff;fill-opacity:0.50196078"
         id="path3158-7"
         d="M 52.81543,34.029447 45.385083,35.993253 33.80586,39.05359 c -0.838149,0.22214 -1.523476,1.1107 -1.523476,1.978779 l 0,22.778008 c -1.772399,-0.475789 -4.04422,-0.247348 -6.221514,0.803485 -14.102056,8.768958 9.000902,14.465262 9.37087,2.831102 l 0,-19.639691 15.754658,-4.167093 0,17.022852 c -1.772398,-0.474215 -4.042645,-0.248924 -6.221513,0.803484 -3.705497,1.791299 -5.687433,5.239981 -4.425484,7.702427 1.258797,2.462443 5.284112,3.009129 8.991183,1.214679 2.953998,-1.427367 4.813049,-3.902415 4.806746,-6.095456 l 0,-29.084577 c 0.0016,-0.866503 -0.685328,-1.394282 -1.5219,-1.172142 z" />
      <g
         id="PLACE_YOUR_GRAPHIC_HERE"
         transform="matrix(0.88945724,0,0,0.88945422,24.142639,39.933439)">
        <path
           d="m 31.324503,-7.5153618 -8.3538,2.2078791 -13.0183021,3.4406899 C 9.0100871,-1.6170442 8.2395861,-0.61804991 8.2395861,0.35791796 l 0,25.60897204 C 6.2469113,25.431967 3.6927449,25.688801 1.2448546,26.870236 -14.609821,36.729043 11.3644,43.133312 11.780348,30.053201 l 0,-22.0806082 17.712665,-4.685 0,19.1385352 c -1.992675,-0.533151 -4.54507,-0.27986 -6.994731,0.903346 -4.166019,2.01393 -6.394272,5.891232 -4.975488,8.659722 1.415242,2.768489 5.940828,3.383119 10.108618,1.365646 3.321125,-1.604767 5.411219,-4.387427 5.404134,-6.85303 l 0,-32.6993515 c 0.0018,-0.9741966 -0.770501,-1.5675709 -1.711043,-1.3178223 z"
           id="path3158"
           style="fill:none;fill-opacity:1"
           inkscape:connector-curvature="0" />
      </g>
      <path
         d="m 50.757612,24.306661 c 3.38952,0.558425 5.597152,1.96256 7.022522,3.599338 2.904886,3.335724 2.560763,7.637698 2.35032,7.716615 l 0.171455,-0.914421"
         id="path3187"
         style="fill:none;stroke:#feffff;stroke-width:1.66619432;stroke-linecap:butt;stroke-linejoin:miter;stroke-miterlimit:4;stroke-dasharray:none;stroke-opacity:0.50196078;marker-start:none"
         inkscape:connector-curvature="0" />
      <path
         d="m 52.008206,20.985112 c 3.856747,0.635402 5.342694,1.786561 7.23384,3.14962 2.043073,1.472562 4.427145,5.852904 4.376867,10.861217"
         id="path3187-1"
         style="fill:none;stroke:#feffff;stroke-width:1.89586973;stroke-linecap:butt;stroke-linejoin:miter;stroke-miterlimit:4;stroke-dasharray:none;stroke-opacity:0.50196078;marker-start:none"
         inkscape:connector-curvature="0" />
      <path
         d="m 49.505616,27.633634 c 2.892679,0.47657 4.776709,1.674885 5.993151,3.071741 2.479079,2.846768 2.185399,6.51815 2.005803,6.585499 l 0.146323,-0.780384"
         id="path3187-7"
         style="fill:none;stroke:#feffff;stroke-width:1.42196059;stroke-linecap:butt;stroke-linejoin:miter;stroke-miterlimit:4;stroke-dasharray:none;stroke-opacity:0.50196078;marker-start:none"
         inkscape:connector-curvature="0" />
    </g>
  </g>
</svg>
